<svg width="48" height="41" viewBox="0 0 48 41" fill="none" xmlns="http://www.w3.org/2000/svg">
<path opacity="0.3" d="M43.5556 6.30769H36L34.2 1.19396C34.0756 0.844037 33.8478 0.541571 33.5475 0.327874C33.2472 0.114177 32.8891 -0.000328123 32.5222 7.06252e-07H15.4778C14.7278 7.06252e-07 14.0556 0.478709 13.8056 1.19396L12 6.30769H4.44444C1.98889 6.30769 0 8.3239 0 10.8132V36.4945C0 38.9838 1.98889 41 4.44444 41H43.5556C46.0111 41 48 38.9838 48 36.4945V10.8132C48 8.3239 46.0111 6.30769 43.5556 6.30769ZM44 36.4945C44 36.7423 43.8 36.9451 43.5556 36.9451H4.44444C4.2 36.9451 4 36.7423 4 36.4945V10.8132C4 10.5654 4.2 10.3626 4.44444 10.3626H14.8167L15.7667 7.67061L17.0389 4.05495H30.9556L32.2278 7.67061L33.1778 10.3626H43.5556C43.8 10.3626 44 10.5654 44 10.8132V36.4945ZM24 13.967C19.0889 13.967 15.1111 17.9995 15.1111 22.978C15.1111 27.9566 19.0889 31.989 24 31.989C28.9111 31.989 32.8889 27.9566 32.8889 22.978C32.8889 17.9995 28.9111 13.967 24 13.967ZM24 28.3846C21.0556 28.3846 18.6667 25.9629 18.6667 22.978C18.6667 19.9931 21.0556 17.5714 24 17.5714C26.9444 17.5714 29.3333 19.9931 29.3333 22.978C29.3333 25.9629 26.9444 28.3846 24 28.3846Z" fill="#2F323A"/>
</svg>
